<?xml version="1.0" encoding="UTF-8" standalone="no"?>
<svg
   xmlns:dc="http://purl.org/dc/elements/1.1/"
   xmlns:cc="http://creativecommons.org/ns#"
   xmlns:rdf="http://www.w3.org/1999/02/22-rdf-syntax-ns#"
   xmlns:svg="http://www.w3.org/2000/svg"
   xmlns="http://www.w3.org/2000/svg"
   xmlns:sodipodi="http://sodipodi.sourceforge.net/DTD/sodipodi-0.dtd"
   xmlns:inkscape="http://www.inkscape.org/namespaces/inkscape"
   width="128"
   height="128"
   viewBox="0 0 33.866666 33.866668"
   version="1.1"
   id="svg8"
   inkscape:version="1.0.1 (3bc2e813f5, 2020-09-07)"
   sodipodi:docname="bunker.svg"
   inkscape:export-filename="/home/nschieder/Documents/emojis/bunker.png"
   inkscape:export-xdpi="96.099998"
   inkscape:export-ydpi="96.099998">
  <defs
     id="defs2">
    <clipPath
       clipPathUnits="userSpaceOnUse"
       id="clipPath2525">
      <path
         style="fill:none;stroke:#000000;stroke-width:1px;stroke-linecap:butt;stroke-linejoin:miter;stroke-opacity:1"
         d="m 128.37642,334.00649 32.94364,19.65399 28.70813,14.91909 20.19532,-1.91964 24.05412,-12.08427 23.16128,-26.82755 19.91907,-12.46094 8.79744,-14.47544 -4.34709,-8.51284 h 9.12666 l 2.23774,-19.2634 -4.55358,-3.40401 7.09264,-4.95536 -5.38227,-8.16405 7.85995,-2.06475 -4.12389,-6.74107 -2.43026,-24.47822 -14.33315,4.02063 -7.45257,-6.52343 -2.23491,-9.44476 0.9933,-12.42465 -11.40625,-34.67915 -18.68024,-26.83315 c 0,0 -38.58119,-26.09655 -59.76144,-28.06641 -10.59013,-0.98491 -13.91904,1.65698 -21.86001,5.68057 -7.94098,4.02359 -20.494,9.42885 -27.23317,14.93049 -13.47839,11.00326 -27.33121,45.52734 -27.33121,45.52734 l -2.21541,32.19309 -3.244967,32.19308 -0.117267,26.68247 c 0,0 6.330904,8.44866 3.741624,14.99164 -2.589289,6.54296 2.78439,19.32404 2.78439,19.32404 z"
         id="path2527"
         sodipodi:nodetypes="cccccccccccccccccccccccsssccccscc" />
    </clipPath>
    <filter
       style="color-interpolation-filters:sRGB;"
       inkscape:label="Lightness-Contrast"
       id="filter951">
      <feColorMatrix
         values="0.16 0.72 0.2 0 0 0.16 0.72 0.2 0 0 0.16 0.72 0.2 0 0 0 0 0 1 0 "
         id="feColorMatrix949"
         result="fbSourceGraphic" />
      <feColorMatrix
         result="fbSourceGraphicAlpha"
         in="fbSourceGraphic"
         values="0 0 0 -1 0 0 0 0 -1 0 0 0 0 -1 0 0 0 0 1 0"
         id="feColorMatrix1045" />
      <feColorMatrix
         id="feColorMatrix1047"
         values="1.25 0 0 0 -0.125 0 1.25 0 0 -0.125 0 0 1.25 0 -0.125 0 0 0 1 0"
         in="fbSourceGraphic" />
    </filter>
  </defs>
  <sodipodi:namedview
     id="base"
     pagecolor="#ffffff"
     bordercolor="#666666"
     borderopacity="1.0"
     inkscape:pageopacity="0.0"
     inkscape:pageshadow="2"
     inkscape:zoom="2.6019321"
     inkscape:cx="112.37346"
     inkscape:cy="-19.351238"
     inkscape:document-units="mm"
     inkscape:current-layer="g2487"
     inkscape:document-rotation="0"
     showgrid="false"
     units="px"
     inkscape:pagecheckerboard="true"
     inkscape:window-width="1530"
     inkscape:window-height="1205"
     inkscape:window-x="26"
     inkscape:window-y="23"
     inkscape:window-maximized="0"
     showguides="false"
     inkscape:guide-bbox="true" />
  <metadata
     id="metadata5">
    <rdf:RDF>
      <cc:Work
         rdf:about="">
        <dc:format>image/svg+xml</dc:format>
        <dc:type
           rdf:resource="http://purl.org/dc/dcmitype/StillImage" />
        <dc:title></dc:title>
      </cc:Work>
    </rdf:RDF>
  </metadata>
  <g
     inkscape:label="Layer 1"
     inkscape:groupmode="layer"
     id="layer1">
    <g
       id="g2362"
       transform="matrix(0.26458333,0,0,0.26458333,3.0811934,5.3676133)">
      <g
         id="g2210">
        <g
           id="g2208" />
      </g>
      <g
         id="g2487"
         transform="translate(-151.27745,-223.7299)">
        <g
           id="g1025"
           transform="matrix(0.90453583,0,0,0.90453583,19.505655,25.591877)">
          <path
             id="rect929"
             style="fill:#b1b1b1;fill-opacity:1;stroke-width:5.85244;stroke-linecap:round;stroke-linejoin:round;paint-order:fill markers stroke"
             d="m 204.32434,224.96434 c -54.3794,0.30936 -60.85316,28.50108 -61.61025,36.25586 h -0.1124 v 1.57422 c -0.006,0.27766 0,0.42578 0,0.42578 v 47.97461 h 123.4453 V 263.2202 c 0,0 0.006,-0.15086 0,-0.43359 v -1.56641 h -0.10824 c -0.74267,-7.84403 -7.1615,-36.56563 -61.61441,-36.25586 z" />
          <rect
             style="fill:#ffffff;fill-opacity:1;stroke:#4d4d4d;stroke-width:3.86268;stroke-linecap:square;stroke-linejoin:miter;stroke-miterlimit:4;stroke-dasharray:none;stroke-opacity:1;paint-order:fill markers stroke"
             id="rect935"
             width="48.790253"
             height="50.600574"
             x="179.88039"
             y="258.56723"
             ry="0" />
          <path
             style="fill:none;stroke:#a5a5a5;stroke-width:1.88976;stroke-linecap:butt;stroke-linejoin:miter;stroke-miterlimit:4;stroke-dasharray:none;stroke-opacity:1"
             d="m 181.83544,299.36805 h 44.92053"
             id="path937-3" />
          <path
             style="fill:none;stroke:#a5a5a5;stroke-width:1.88976;stroke-linecap:butt;stroke-linejoin:miter;stroke-miterlimit:4;stroke-dasharray:none;stroke-opacity:1"
             d="m 181.83544,289.06952 h 44.92053"
             id="path937-6" />
          <path
             style="fill:none;stroke:#a5a5a5;stroke-width:1.88976;stroke-linecap:butt;stroke-linejoin:miter;stroke-miterlimit:4;stroke-dasharray:none;stroke-opacity:1"
             d="m 181.83544,278.77099 h 44.92053"
             id="path937-7" />
          <path
             style="fill:none;stroke:#a5a5a5;stroke-width:1.88976;stroke-linecap:butt;stroke-linejoin:miter;stroke-miterlimit:4;stroke-dasharray:none;stroke-opacity:1"
             d="m 181.83544,268.47246 h 44.92053"
             id="path937-5" />
          <rect
             style="fill:#b1b1b1;fill-opacity:1;stroke:none;stroke-width:3.77953;stroke-linecap:round;stroke-linejoin:round;stroke-miterlimit:4;stroke-dasharray:none;stroke-opacity:1;paint-order:fill markers stroke"
             id="rect999"
             width="44.883278"
             height="3.9635582"
             x="181.84573"
             y="307.21487" />
        </g>
        <path
           style="fill:#118c06;fill-opacity:1;stroke:none;stroke-width:1px;stroke-linecap:butt;stroke-linejoin:miter;stroke-opacity:1"
           d="m 238.91781,311.17934 c 0,0 -5.41627,-1.40248 -3.15383,-10.14073 2.26244,-8.73825 5.16894,-2.0012 5.16894,-2.0012 0,0 -3.82528,-10.03385 3.80577,-6.67547 7.63105,3.35838 3.60533,0.0983 3.60533,0.0983 0,0 -1.65742,-7.26473 4.34398,-5.8828 6.0014,1.38194 4.86718,7.18592 4.86718,7.18592 0,0 0.0503,-7.29701 6.17705,-5.47445 6.12675,1.82256 3.61252,21.94973 2.52044,22.90587 -1.09208,0.95614 -22.77169,1.14129 -27.33486,-0.0155 z"
           id="path1001"
           sodipodi:nodetypes="cscscccszcc" />
        <path
           style="fill:#118c06;fill-opacity:1;stroke:none;stroke-width:1px;stroke-linecap:butt;stroke-linejoin:miter;stroke-opacity:1"
           d="m 168.91659,311.40751 c 0,0 5.41627,-1.40248 3.15383,-10.14073 -2.26244,-8.73825 -5.16894,-2.0012 -5.16894,-2.0012 0,0 3.82528,-10.03385 -3.80577,-6.67547 -7.63105,3.35838 -2.43508,5.253 -2.43508,5.253 0,0 1.65742,-7.26473 -4.34398,-5.8828 -6.0014,1.38194 -4.86718,7.18592 -4.86718,7.18592 0,0 -0.0503,-7.29701 -6.17705,-5.47445 -6.12675,1.82256 -4.78277,16.79506 -3.69069,17.7512 1.09208,0.95614 22.77169,1.14129 27.33486,-0.0155 z"
           id="path1001-3"
           sodipodi:nodetypes="cscscccszcc" />
      </g>
    </g>
  </g>
  <style
     type="text/css"
     id="style2384">
	.st0{fill:#435363;}
	.st1{fill:#231815;}
</style>
</svg>
