<?xml version="1.0" encoding="UTF-8" standalone="no"?>
<svg
   xmlns:dc="http://purl.org/dc/elements/1.1/"
   xmlns:cc="http://creativecommons.org/ns#"
   xmlns:rdf="http://www.w3.org/1999/02/22-rdf-syntax-ns#"
   xmlns:svg="http://www.w3.org/2000/svg"
   xmlns="http://www.w3.org/2000/svg"
   xmlns:sodipodi="http://sodipodi.sourceforge.net/DTD/sodipodi-0.dtd"
   xmlns:inkscape="http://www.inkscape.org/namespaces/inkscape"
   width="128"
   height="128"
   viewBox="0 0 33.866666 33.866668"
   version="1.1"
   id="svg2397"
   sodipodi:docname="endmill_broken_tin.svg"
   inkscape:export-filename="/home/nschieder/endmill_broken_tin.png"
   inkscape:export-xdpi="96"
   inkscape:export-ydpi="96"
   inkscape:version="1.0.1 (3bc2e813f5, 2020-09-07)">
  <defs
     id="defs2391" />
  <sodipodi:namedview
     id="base"
     pagecolor="#ffffff"
     bordercolor="#666666"
     borderopacity="1.0"
     inkscape:pageopacity="0.0"
     inkscape:pageshadow="2"
     inkscape:zoom="2.8"
     inkscape:cx="107.61973"
     inkscape:cy="94.628155"
     inkscape:document-units="px"
     inkscape:current-layer="layer1"
     inkscape:document-rotation="0"
     showgrid="false"
     units="px"
     inkscape:window-width="1530"
     inkscape:window-height="1205"
     inkscape:window-x="26"
     inkscape:window-y="23"
     inkscape:window-maximized="0" />
  <metadata
     id="metadata2394">
    <rdf:RDF>
      <cc:Work
         rdf:about="">
        <dc:format>image/svg+xml</dc:format>
        <dc:type
           rdf:resource="http://purl.org/dc/dcmitype/StillImage" />
        <dc:title></dc:title>
      </cc:Work>
    </rdf:RDF>
  </metadata>
  <g
     inkscape:label="Layer 1"
     inkscape:groupmode="layer"
     id="layer1">
    <rect
       style="display:inline;fill:#decb95;fill-opacity:1;stroke:none;stroke-width:0.0431675;stroke-linejoin:round;stroke-miterlimit:4;stroke-dasharray:none;stroke-opacity:1;paint-order:markers stroke fill"
       id="rect2342"
       width="7.8461833"
       height="19.314781"
       x="22.196531"
       y="7.0565491"
       transform="rotate(37)" />
    <path
       style="display:inline;fill:#decb95;fill-opacity:1;stroke:none;stroke-width:0.0356549;stroke-linecap:butt;stroke-linejoin:miter;stroke-miterlimit:4;stroke-dasharray:none;stroke-opacity:1"
       d="m 21.749864,19.944339 c 0,0 -1.082135,3.733207 -3.788443,5.356571 -2.706307,1.623366 -10.8843327,2.575833 -10.8843327,2.575833 0.2879455,-0.344113 1.151161,-1.030719 1.5679415,-1.167718 l 8.4061132,-1.95214 z"
       id="path2115-3-62-8-2"
       sodipodi:nodetypes="czcccc" />
    <path
       style="display:inline;fill:#382e17;fill-opacity:1;stroke:none;stroke-width:0.0356549;stroke-linecap:butt;stroke-linejoin:miter;stroke-miterlimit:4;stroke-dasharray:none;stroke-opacity:1"
       d="m 18.460113,24.410884 c 1.218051,-0.74855 2.040491,-1.865186 2.558413,-2.794685 0.517926,-0.929501 0.731338,-1.67186 0.731338,-1.67186 -1.762154,-0.01325 -5.776301,3.491062 -4.751547,3.97948 0.667388,0.318091 0.828785,0.27322 1.461796,0.487065 z"
       id="path2113-6-6-7-0"
       sodipodi:nodetypes="cscsc" />
    <path
       style="display:inline;fill:#947c3d;fill-opacity:1;stroke:none;stroke-width:0.0356549;stroke-linecap:butt;stroke-linejoin:miter;stroke-miterlimit:4;stroke-dasharray:none;stroke-opacity:1"
       d="m 16.896286,21.390143 c 3.382203,-0.668597 4.853578,-1.445804 4.853578,-1.445804 0,0 -1.127749,2.892409 -4.684369,4.022303 -0.77275,-0.0725 -0.644561,-1.482238 -0.169205,-2.576499 z"
       id="path1550-7-1-9-2"
       sodipodi:nodetypes="cccc" />
    <path
       style="display:inline;fill:#decb95;fill-opacity:1;stroke:none;stroke-width:0.0356549;stroke-linecap:butt;stroke-linejoin:miter;stroke-miterlimit:4;stroke-dasharray:none;stroke-opacity:1"
       d="m 24.951419,15.502878 c 0,0 -1.082135,3.733206 -3.788444,5.356571 -2.706307,1.623365 -10.884332,2.575832 -10.884332,2.575832 0.287946,-0.344113 1.151163,-1.030719 1.567944,-1.167718 l 8.40611,-1.952141 z"
       id="path2115-3-62-8"
       sodipodi:nodetypes="czcccc" />
    <path
       style="display:inline;fill:#382e17;fill-opacity:1;stroke:none;stroke-width:0.0356549;stroke-linecap:butt;stroke-linejoin:miter;stroke-miterlimit:4;stroke-dasharray:none;stroke-opacity:1"
       d="m 14.091075,21.722433 c 0,0 5.205837,-0.145584 7.570594,-1.753011 2.364756,-1.607426 3.289748,-4.466546 3.289748,-4.466546 -3.620114,2.073185 -14.435572,4.793819 -10.860342,6.219557 z"
       id="path2113-6-6-7"
       sodipodi:nodetypes="czcc" />
    <path
       style="display:inline;fill:#947c3d;fill-opacity:1;stroke:none;stroke-width:0.0356549;stroke-linecap:butt;stroke-linejoin:miter;stroke-miterlimit:4;stroke-dasharray:none;stroke-opacity:1"
       d="m 13.443172,21.282574 c 0,0 -0.292918,-0.339952 -0.242123,-0.83997 0.05079,-0.500015 0.279151,-1.448786 0.279151,-1.448786 0,0 2.502545,-0.929681 5.884748,-1.598279 3.382204,-0.668596 5.586471,-1.892661 5.586471,-1.892661 0,0 -2.424926,3.426465 -5.981549,4.556361 -3.556623,1.129898 -5.526698,1.223335 -5.526698,1.223335 z"
       id="path1550-7-1-9"
       sodipodi:nodetypes="czczczc" />
    <path
       id="path4151"
       style="display:inline;fill:#decb95;fill-opacity:1;stroke:none;stroke-width:0.134759;stroke-linecap:butt;stroke-linejoin:miter;stroke-miterlimit:4;stroke-dasharray:none;stroke-opacity:1"
       d="M 80.816406 61.814453 L 56.875 67.375 C 55.299765 67.892784 52.037515 70.486529 50.949219 71.787109 C 50.949219 71.787109 81.857383 68.188276 92.085938 62.052734 C 95.206073 60.18114 97.5813 57.560795 99.617188 54.832031 L 99.056641 52.894531 L 92.017578 56.542969 L 88.646484 59.996094 L 82.681641 61.380859 L 81.179688 62.160156 L 80.816406 61.814453 z "
       transform="scale(0.26458334)" />
    <path
       id="path4149"
       style="display:inline;fill:#decb95;fill-opacity:1;stroke:none;stroke-width:0.134759;stroke-linecap:butt;stroke-linejoin:miter;stroke-miterlimit:4;stroke-dasharray:none;stroke-opacity:1"
       d="M 80.816406 61.814453 L 81.179688 62.160156 L 82.681641 61.380859 L 80.816406 61.814453 z "
       transform="scale(0.26458334)" />
    <path
       id="path2113-6-6"
       style="display:inline;fill:#382e17;fill-opacity:1;stroke:none;stroke-width:0.134759;stroke-linecap:butt;stroke-linejoin:miter;stroke-miterlimit:4;stroke-dasharray:none;stroke-opacity:1"
       d="M 76.173828 57.412109 L 56.875 67.375 C 56.875 67.375 85.033043 64.762818 93.970703 58.6875 C 96.054853 57.270814 97.816956 55.589636 99.333984 53.855469 L 99.056641 52.894531 L 81.179688 62.160156 L 76.173828 57.412109 z "
       transform="scale(0.26458334)" />
    <path
       id="path1550-7-1"
       style="display:inline;fill:#947c3d;fill-opacity:1;stroke:none;stroke-width:0.134759;stroke-linecap:butt;stroke-linejoin:miter;stroke-miterlimit:4;stroke-dasharray:none;stroke-opacity:1"
       d="M 71.011719 52.519531 C 66.289005 53.901567 63.048828 55.001953 63.048828 55.001953 C 63.048828 55.001953 60.259551 56.90901 58.675781 60.119141 C 57.091993 63.329286 56.875 67.375 56.875 67.375 C 56.875 67.375 68.419233 63.829975 79.333984 60.410156 L 71.011719 52.519531 z "
       transform="scale(0.26458334)" />
    <path
       id="path2115-3"
       style="display:inline;fill:#decb95;fill-opacity:1;stroke:none;stroke-width:0.134759;stroke-linecap:butt;stroke-linejoin:miter;stroke-miterlimit:4;stroke-dasharray:none;stroke-opacity:1"
       d="M 68.974609 50.587891 C 67.399355 51.105652 64.137128 53.701365 63.048828 55.001953 C 63.048828 55.001953 68.618204 54.115209 72.15625 53.603516 L 68.974609 50.587891 z "
       transform="scale(0.26458334)" />
    <g
       id="g4175"
       transform="rotate(20,31.276551,7.4356787)">
      <path
         id="path2115-3-62"
         style="display:inline;fill:#decb95;fill-opacity:1;stroke:none;stroke-width:0.035655;stroke-linecap:butt;stroke-linejoin:miter;stroke-miterlimit:4;stroke-dasharray:none;stroke-opacity:1"
         d="m 24.981483,14.147349 1.862419,-0.965316 0.148311,0.512631 c 1.227205,-1.644861 1.795757,-3.446302 1.795757,-3.446302 z" />
      <path
         id="path4131"
         style="display:inline;fill:#382e17;fill-opacity:1;stroke:none;stroke-width:0.035655;stroke-linecap:butt;stroke-linejoin:miter;stroke-miterlimit:4;stroke-dasharray:none;stroke-opacity:1"
         d="m 20.789491,14.377309 1.324467,1.256253 4.729944,-2.45153 0.07338,0.254248 c 1.3199,-1.508822 1.870688,-3.187918 1.870688,-3.187918 z" />
      <path
         id="path4113"
         style="display:inline;fill:#947c3d;fill-opacity:1;stroke:none;stroke-width:0.035655;stroke-linecap:butt;stroke-linejoin:miter;stroke-miterlimit:4;stroke-dasharray:none;stroke-opacity:1"
         d="m 19.423683,13.082815 2.201932,2.087727 c 0.573813,-0.179787 0.591256,-0.178576 1.180807,-0.365869 3.556621,-1.129896 5.981548,-4.556311 5.981548,-4.556311 0,0 -2.204018,1.224313 -5.586223,1.892908 -1.517367,0.299954 -2.761339,0.644014 -3.778064,0.941545 z" />
      <path
         id="path4095"
         style="display:inline;fill:#decb95;fill-opacity:1;stroke:none;stroke-width:0.035655;stroke-linecap:butt;stroke-linejoin:miter;stroke-miterlimit:4;stroke-dasharray:none;stroke-opacity:1"
         d="m 18.884697,12.571735 0.84181,0.797884 c 2.503947,-0.362136 6.505068,-1.024455 8.474935,-2.206068 2.706306,-1.6233655 3.788399,-5.3567788 3.788399,-5.3567788 l -4.698939,4.8126258 z" />
      <path
         style="display:inline;fill:#382e17;fill-opacity:1;stroke:none;stroke-width:0.0356549;stroke-linecap:butt;stroke-linejoin:miter;stroke-miterlimit:4;stroke-dasharray:none;stroke-opacity:1"
         d="m 18.884866,12.571659 c 0,0 7.450325,-0.690711 9.815081,-2.29814 2.364757,-1.6074249 3.289745,-4.4665429 3.289745,-4.4665429 z"
         id="path2113-6"
         sodipodi:nodetypes="czcc" />
      <path
         style="display:inline;fill:#947c3d;fill-opacity:1;stroke:none;stroke-width:0.0356549;stroke-linecap:butt;stroke-linejoin:miter;stroke-miterlimit:4;stroke-dasharray:none;stroke-opacity:1"
         d="m 18.884862,12.571659 c 0,0 0.05725,-1.070342 0.476286,-1.91969 0.41904,-0.8493485 1.157325,-1.3540515 1.157325,-1.3540515 0,0 2.502544,-0.9296848 5.88475,-1.5982805 3.382202,-0.6685971 5.586469,-1.8926609 5.586469,-1.8926609 0,0 -2.424924,3.4264664 -5.981547,4.5563609 -3.556623,1.129895 -7.123283,2.208322 -7.123283,2.208322 z"
         id="path1550-7"
         sodipodi:nodetypes="czczczc" />
      <path
         id="path2115-3-6"
         style="display:inline;fill:#decb95;fill-opacity:1;stroke:none;stroke-width:0.035655;stroke-linecap:butt;stroke-linejoin:miter;stroke-miterlimit:4;stroke-dasharray:none;stroke-opacity:1"
         d="m 31.883389,4.7536064 -1.390613,1.4247194 -8.406207,1.9518188 c -0.416782,0.1369994 -1.280435,0.8237721 -1.568379,1.1678879 0,0 8.1783,-0.9527102 10.884607,-2.5760705 0.701122,-0.4205663 1.292376,-0.9827403 1.784903,-1.5849164 z" />
      <path
         id="path2113-6-2"
         style="display:inline;fill:#382e17;fill-opacity:1;stroke:none;stroke-width:0.035655;stroke-linecap:butt;stroke-linejoin:miter;stroke-miterlimit:4;stroke-dasharray:none;stroke-opacity:1"
         d="m 29.809095,4.1438246 -7.722526,3.98632 c 0,0 7.450148,-0.6906218 9.814907,-2.298051 0.352888,-0.2398763 0.671856,-0.5081138 0.962213,-0.7901326 z" />
      <path
         id="path1550-7-9"
         style="display:inline;fill:#947c3d;fill-opacity:1;stroke:none;stroke-width:0.035655;stroke-linecap:butt;stroke-linejoin:miter;stroke-miterlimit:4;stroke-dasharray:none;stroke-opacity:1"
         d="m 28.8629,3.4157037 c -2.994234,0.6482117 -5.142839,1.4407388 -5.142839,1.4407388 0,0 -0.738513,0.5045734 -1.157552,1.3539227 -0.41904,0.8493477 -0.47594,1.9197794 -0.47594,1.9197794 0,0 3.566457,-1.078239 7.123081,-2.2081339 0.910317,-0.2891978 1.74476,-0.7300635 2.485117,-1.2242147 L 28.850496,3.8616713 Z" />
      <path
         id="path2115-3-6-1"
         style="display:inline;fill:#decb95;fill-opacity:1;stroke:none;stroke-width:0.035655;stroke-linecap:butt;stroke-linejoin:miter;stroke-miterlimit:4;stroke-dasharray:none;stroke-opacity:1"
         d="m 28.878921,2.8550143 -3.590997,0.833541 c -0.416781,0.1369957 -1.279919,0.8237717 -1.567863,1.1678872 0,0 2.685328,-0.3175211 5.486488,-0.8898681 L 28.850496,3.8616713 Z" />
      <path
         id="path2113-6-2-2"
         style="display:inline;fill:#382e17;fill-opacity:1;stroke:none;stroke-width:0.035655;stroke-linecap:butt;stroke-linejoin:miter;stroke-miterlimit:4;stroke-dasharray:none;stroke-opacity:1"
         d="m 28.836029,1.8576592 -3.548105,1.8308961 c 0,0 1.618273,-0.1525845 3.580659,-0.4743898 l 0.03669,-1.304313 z" />
      <path
         id="path1550-7-9-7"
         style="display:inline;fill:#947c3d;fill-opacity:1;stroke:none;stroke-width:0.035655;stroke-linecap:butt;stroke-linejoin:miter;stroke-miterlimit:4;stroke-dasharray:none;stroke-opacity:1"
         d="M 27.908437,1.158477 25.38921,2.9490655 c -0.08183,0.4223885 -0.101286,0.7394898 -0.101286,0.7394898 0,0 1.745598,-0.5330979 3.59823,-1.1058758 l 0.01912,-0.672827 z" />
    </g>
    <g
       id="g4180"
       transform="translate(0.82302754,8.8345655)">
      <path
         id="path1550-7-9-9"
         style="display:inline;fill:#947c3d;fill-opacity:1;stroke:none;stroke-width:0.035655;stroke-linecap:butt;stroke-linejoin:miter;stroke-miterlimit:4;stroke-dasharray:none;stroke-opacity:1"
         d="m 31.419623,3.4807422 c -0.278824,-0.03414 -0.562916,-0.07191 -0.856301,-0.119026 -0.257839,-0.04141 -0.501598,-0.07418 -0.750169,-0.109511 l -0.166387,0.413953 1.115751,0.831046 0.261753,-0.05964 1.252029,0.377851 z" />
      <path
         id="path2115-3-6-1-7"
         style="display:inline;fill:#decb95;fill-opacity:1;stroke:none;stroke-width:0.035655;stroke-linecap:butt;stroke-linejoin:miter;stroke-miterlimit:4;stroke-dasharray:none;stroke-opacity:1"
         d="m 31.019756,2.8578242 -0.997319,-0.126572 -0.375678,0.934903 0.298009,0.222119 c 0.63382,0.09762 1.2737,0.188485 1.900358,0.256279 z" />
      <path
         id="path2113-6-2-2-3"
         style="display:inline;fill:#382e17;fill-opacity:1;stroke:none;stroke-width:0.035655;stroke-linecap:butt;stroke-linejoin:miter;stroke-miterlimit:4;stroke-dasharray:none;stroke-opacity:1"
         d="m 30.375622,1.8541472 -0.487024,1.210531 c 0.462079,0.08976 0.938788,0.17834 1.428776,0.257561 z" />
    </g>
    <path
       id="path1550-7-9-7-6"
       style="display:inline;fill:#947c3d;fill-opacity:1;stroke:none;stroke-width:0.035655;stroke-linecap:butt;stroke-linejoin:miter;stroke-miterlimit:4;stroke-dasharray:none;stroke-opacity:1"
       d="m 32.295502,0.82807804 c 0,0 -0.639166,0.62506016 -0.904351,1.53426996 -0.121655,0.4171009 -0.158376,0.862895 -0.164515,1.2275065 L 33.396147,1.3891002 Z M 23.24525,1.0028795 22.855428,2.3035974 C 23.166067,2.1440864 23.611025,1.5336856 23.9474,1.3602556 Z"
       sodipodi:nodetypes="csccccccc" />
    <path
       id="path1550-7-9-7-6-6"
       style="display:inline;fill:#947c3d;fill-opacity:1;stroke:none;stroke-width:0.035655;stroke-linecap:butt;stroke-linejoin:miter;stroke-miterlimit:4;stroke-dasharray:none;stroke-opacity:1"
       d="m 28.335275,14.101002 c 0,0 -0.639166,0.62506 -0.904351,1.53427 -0.121655,0.417101 1.050484,-0.706408 1.044345,-0.341796 L 29.43592,14.662024 Z M 17.72421,3.0455918 18.759366,4.1434797 C 19.070005,3.9839687 18.966824,3.51697 19.303199,3.34354 Z"
       sodipodi:nodetypes="csccccccc" />
    <path
       id="path1550-7-9-7-6-6-1"
       style="display:inline;fill:#947c3d;fill-opacity:1;stroke:none;stroke-width:0.035655;stroke-linecap:butt;stroke-linejoin:miter;stroke-miterlimit:4;stroke-dasharray:none;stroke-opacity:1"
       d="m 26.899854,18.356738 -0.904351,1.53427 1.044345,-0.341796 0.960651,-0.631452 z M 13.08891,9.8008063 13.390261,11.296972 c 0.310639,-0.159511 0.941263,-1.024788 1.277638,-1.198218 z"
       sodipodi:nodetypes="ccccccccc" />
    <rect
       style="display:inline;fill:#ffffff;fill-opacity:1;stroke:none;stroke-width:0.0431676;stroke-linejoin:round;stroke-miterlimit:4;stroke-dasharray:none;stroke-opacity:1;paint-order:markers stroke fill"
       id="rect2342-5"
       width="7.8461819"
       height="12.746919"
       x="22.196531"
       y="13.624412"
       transform="rotate(36.999999)" />
    <rect
       style="display:inline;fill:#aeaeae;fill-opacity:1;stroke:none;stroke-width:0.0431676;stroke-linejoin:round;stroke-miterlimit:4;stroke-dasharray:none;stroke-opacity:1;paint-order:markers stroke fill"
       id="rect2342-5-5"
       width="7.8461819"
       height="12.407222"
       x="22.196531"
       y="13.964108"
       transform="rotate(36.999999)" />
  </g>
</svg>
