<?xml version="1.0" encoding="UTF-8" standalone="no"?>
<svg
   xmlns:dc="http://purl.org/dc/elements/1.1/"
   xmlns:cc="http://creativecommons.org/ns#"
   xmlns:rdf="http://www.w3.org/1999/02/22-rdf-syntax-ns#"
   xmlns:svg="http://www.w3.org/2000/svg"
   xmlns="http://www.w3.org/2000/svg"
   xmlns:sodipodi="http://sodipodi.sourceforge.net/DTD/sodipodi-0.dtd"
   xmlns:inkscape="http://www.inkscape.org/namespaces/inkscape"
   width="128"
   height="128"
   viewBox="0 0 33.866666 33.866668"
   version="1.1"
   id="svg8"
   inkscape:version="1.0.1 (3bc2e813f5, 2020-09-07)"
   sodipodi:docname="linux_tux.svg"
   inkscape:export-filename="/home/nschieder/Documents/emojis/linux_tux.png"
   inkscape:export-xdpi="96.000008"
   inkscape:export-ydpi="96.000008">
  <defs
     id="defs2" />
  <sodipodi:namedview
     id="base"
     pagecolor="#ffffff"
     bordercolor="#666666"
     borderopacity="1.0"
     inkscape:pageopacity="0.0"
     inkscape:pageshadow="2"
     inkscape:zoom="5.6"
     inkscape:cx="77.255062"
     inkscape:cy="56.975226"
     inkscape:document-units="mm"
     inkscape:current-layer="layer1"
     inkscape:document-rotation="0"
     showgrid="false"
     units="px"
     inkscape:pagecheckerboard="true"
     inkscape:window-width="1530"
     inkscape:window-height="1205"
     inkscape:window-x="26"
     inkscape:window-y="23"
     inkscape:window-maximized="0" />
  <metadata
     id="metadata5">
    <rdf:RDF>
      <cc:Work
         rdf:about="">
        <dc:format>image/svg+xml</dc:format>
        <dc:type
           rdf:resource="http://purl.org/dc/dcmitype/StillImage" />
        <dc:title></dc:title>
      </cc:Work>
    </rdf:RDF>
  </metadata>
  <g
     inkscape:label="Layer 1"
     inkscape:groupmode="layer"
     id="layer1">
    <g
       id="g1509"
       transform="matrix(0.92016196,0,0,0.92016196,-5.9392739,-7.0364732)">
      <polygon
         fill="#eceff1"
         points="28.4,17.9 20.1,18.2 20.2,20.5 18.6,23.5 16.1,28.4 15.6,32.5 17.4,38.3 21.5,40.6 27.7,40.6 33.5,36.2 36.1,29.3 30.1,22 "
         id="polygon1450" />
      <path
         fill="#263238"
         d="M 34.3,23.9 C 32.7,21.6 31.4,20.2 30.7,17.3 30,14.4 30.9,15.2 30.3,12.7 30,11.4 29.5,10.5 29,9.8 28.4,9.1 27.7,8.7 27.3,8.6 c -0.9,-0.5 -3,-1.3 -5.6,0.1 -2.7,1.4 -2.4,4.4 -1.9,10.5 0,0.4 -0.1,0.9 -0.3,1.3 -0.4,0.9 -1.1,1.7 -1.7,2.4 -0.7,1 -1.4,2 -1.9,3.1 -1.2,2.3 -2.3,5.2 -2,6.3 0.5,-0.1 6.8,9.5 6.8,9.7 0.4,-0.1 2.1,-0.1 3.6,-0.1 2.1,-0.1 3.3,-0.2 5,0.2 0,-0.3 -0.1,-0.6 -0.1,-0.9 0,-0.6 0.1,-1.1 0.2,-1.8 0.1,-0.5 0.2,-1 0.3,-1.6 -1,0.9 -2.8,1.9 -4.5,2.2 -1.5,0.3 -4,-0.2 -5.2,-1.7 0.1,0 0.3,0 0.4,-0.1 0.3,-0.1 0.6,-0.2 0.7,-0.4 0.3,-0.5 0.1,-1 -0.1,-1.3 -0.2,-0.3 -1.7,-1.4 -2.4,-2 -0.7,-0.6 -1.1,-0.9 -1.5,-1.3 0,0 -0.6,-0.6 -0.8,-0.8 C 16.1,32.2 16,32 15.9,31.9 15.7,31.4 15.6,30.8 15.7,30 c 0.1,-1.1 0.5,-2 1,-3 0.2,-0.4 0.7,-1.2 0.7,-1.2 0,0 -1.7,4.2 -0.8,5.5 0,0 0.1,-1.3 0.5,-2.6 0.3,-0.9 0.8,-2.2 1.4,-2.9 0.6,-0.7 2.1,-3.3 2.2,-4.9 0,-0.7 0.1,-1.4 0.1,-1.9 -0.4,-0.4 6.6,-1.4 7,-0.3 0.1,0.4 1.5,4 2.3,5.9 0.4,0.9 0.9,1.7 1.2,2.7 0.3,1.1 0.5,2.6 0.5,4.1 0,0.3 0,0.8 -0.1,1.3 0.2,0 4.1,-4.2 -0.5,-7.7 0,0 2.8,1.3 2.9,3.9 0.1,2.1 -0.8,3.8 -1,4.1 0.1,0 2.1,0.9 2.2,0.9 0.4,0 1.2,-0.3 1.2,-0.3 0.1,-0.3 0.4,-1.1 0.4,-1.4 0.7,-2.3 -1,-6 -2.6,-8.3 z"
         id="path1452" />
      <g
         id="g1458">
	<ellipse
   fill="#eceff1"
   cx="21.6"
   cy="15.3"
   rx="1.3"
   ry="2"
   id="ellipse1454" />

	<ellipse
   fill="#eceff1"
   cx="26.1"
   cy="15.2"
   rx="1.7"
   ry="2.3"
   id="ellipse1456" />

</g>
      <g
         id="g1464">
	
		<ellipse
   transform="matrix(-0.1254,-0.9921,0.9921,-0.1254,8.9754,38.9969)"
   fill="#212121"
   cx="21.700001"
   cy="15.5"
   rx="1.2"
   ry="0.69999999"
   id="ellipse1460" />

	<ellipse
   fill="#212121"
   cx="26"
   cy="15.6"
   rx="1"
   ry="1.3"
   id="ellipse1462" />

</g>
      <g
         id="g1472">
	<path
   fill="#ffc107"
   d="m 39.3,37.6 c -0.4,-0.2 -1.1,-0.5 -1.7,-1.4 -0.3,-0.5 -0.2,-1.9 -0.7,-2.5 -0.3,-0.4 -0.7,-0.2 -0.8,-0.2 -0.9,0.2 -3,1.6 -4.4,0 -0.2,-0.2 -0.5,-0.5 -1,-0.5 -0.5,0 -0.7,0.2 -0.9,0.6 -0.2,0.4 -0.2,0.7 -0.2,1.7 0,0.8 0,1.7 -0.1,2.4 -0.2,1.7 -0.5,2.7 -0.5,3.7 0,1.1 0.3,1.8 0.7,2.1 0.3,0.3 0.8,0.5 1.9,0.5 1.1,0 1.8,-0.4 2.5,-1.1 0.5,-0.5 0.9,-0.7 2.3,-1.7 1.1,-0.7 2.8,-1.6 3.1,-1.9 0.2,-0.2 0.5,-0.3 0.5,-0.9 0,-0.5 -0.4,-0.7 -0.7,-0.8 z"
   id="path1466" />

	<path
   fill="#ffc107"
   d="m 19.2,37.9 c -1,-1.6 -1.1,-1.9 -1.8,-2.9 -0.6,-1 -1.9,-2.9 -2.7,-2.9 -0.6,0 -0.9,0.3 -1.3,0.7 -0.4,0.4 -0.8,1.3 -1.5,1.8 -0.6,0.5 -2.3,0.4 -2.7,1 -0.4,0.6 0.4,1.5 0.4,3 0,0.6 -0.5,1 -0.6,1.4 -0.1,0.5 -0.2,0.8 0,1.2 0.4,0.6 0.9,0.8 4.3,1.5 1.8,0.4 3.5,1.4 4.6,1.5 1.1,0.1 3,0 3,-2.7 0.1,-1.6 -0.8,-2 -1.7,-3.6 z"
   id="path1468" />

	<path
   fill="#ffc107"
   d="M 21.1,19.8 C 20.5,19.4 20,19 20,18.4 c 0,-0.6 0.4,-0.8 1,-1.3 0.1,-0.1 1.2,-1.1 2.3,-1.1 1.1,0 2.4,0.7 2.9,0.9 0.9,0.2 1.8,0.4 1.7,1.1 -0.1,1 -0.2,1.2 -1.2,1.7 -0.7,0.2 -2,1.3 -2.9,1.3 -0.4,0 -1,0 -1.4,-0.1 -0.3,-0.1 -0.8,-0.6 -1.3,-1.1 z"
   id="path1470" />

</g>
      <g
         id="g1480">
	<path
   fill="#634703"
   d="m 20.9,19 c 0.2,0.2 0.5,0.4 0.8,0.5 0.2,0.1 0.5,0.2 0.5,0.2 0.4,0 0.7,0 0.9,0 0.5,0 1.2,-0.2 1.9,-0.6 0.7,-0.3 0.8,-0.5 1.3,-0.7 0.5,-0.3 1,-0.6 0.8,-0.7 -0.2,-0.1 -0.4,0 -1.1,0.4 -0.6,0.4 -1.1,0.6 -1.7,0.9 -0.3,0.1 -0.7,0.3 -1,0.3 -0.3,0 -0.6,0 -0.9,0 -0.3,0 -0.5,-0.1 -0.8,-0.2 -0.2,-0.1 -0.3,-0.2 -0.4,-0.2 -0.2,-0.1 -0.6,-0.5 -0.8,-0.6 0,0 -0.2,0 -0.1,0.1 0.3,0.3 0.4,0.4 0.6,0.6 z"
   id="path1474" />

	<path
   fill="#634703"
   d="m 23.9,16.8 c 0.1,0.2 0.3,0.2 0.4,0.3 0.1,0.1 0.2,0.1 0.2,0.1 0.1,-0.1 0,-0.3 -0.1,-0.3 0,-0.2 -0.5,-0.2 -0.5,-0.1 z"
   id="path1476" />

	<path
   fill="#634703"
   d="m 22.3,17 c 0,0.1 0.2,0.2 0.2,0.1 0.1,-0.1 0.2,-0.2 0.3,-0.2 0.2,-0.1 0.1,-0.2 -0.2,-0.2 -0.2,0.1 -0.2,0.2 -0.3,0.3 z"
   id="path1478" />

</g>
      <path
         fill="#455a64"
         d="m 32,34.7 c 0,0.1 0,0.2 0,0.3 0.2,0.4 0.7,0.5 1.1,0.5 0.6,0 1.2,-0.4 1.5,-0.8 0,-0.1 0.1,-0.2 0.2,-0.3 0.2,-0.3 0.3,-0.5 0.4,-0.6 0,0 -0.1,-0.1 -0.1,-0.2 -0.1,-0.2 -0.4,-0.4 -0.8,-0.5 -0.3,-0.1 -0.8,-0.2 -1,-0.2 -0.9,-0.1 -1.4,0.2 -1.7,0.5 0,0 0.1,0 0.1,0.1 0.2,0.2 0.3,0.4 0.3,0.7 0.1,0.2 0,0.3 0,0.5 z"
         id="path1482" />
    </g>
  </g>
</svg>
